<svg width="95" height="26" viewBox="0 0 95 26" fill="none" xmlns="http://www.w3.org/2000/svg">
<path d="M2.39158 25.1176V0.349644H14.1996V4.05764H6.49558V10.7536H13.1556V14.4616H6.49558V21.4096H14.1996V25.1176H2.39158ZM27.9102 25.1176L25.2462 16.0816H21.7182V25.1176H17.6142V0.349644H25.6062C27.3342 0.349644 28.6302 0.649644 29.4942 1.24964C30.3822 1.84964 30.9702 2.70164 31.2582 3.80564C31.5702 4.90965 31.7262 6.37364 31.7262 8.19764C31.7262 9.97364 31.5462 11.4496 31.1862 12.6256C30.8502 13.8016 30.1542 14.6656 29.0982 15.2176L32.2302 25.1176H27.9102ZM24.6342 12.3736C25.5462 12.3736 26.2062 12.2656 26.6142 12.0496C27.0222 11.8096 27.2862 11.4136 27.4062 10.8616C27.5502 10.2856 27.6222 9.39764 27.6222 8.19764C27.6222 6.99764 27.5502 6.12164 27.4062 5.56964C27.2862 5.01764 27.0222 4.63364 26.6142 4.41764C26.2062 4.17764 25.5462 4.05764 24.6342 4.05764H21.7182V12.3736H24.6342ZM35.2987 25.1176V0.349644H39.4387V25.1176H35.2987ZM54.5353 25.1176L47.8393 9.81764H47.6953V25.1176H43.7353V0.349644H47.8393L54.2473 14.8936H54.3913V0.349644H58.3513V25.1176H54.5353ZM76.8342 0.349644V14.2096C76.8342 17.4496 76.6902 19.8136 76.4022 21.3016C76.1142 22.7656 75.4782 23.8216 74.4942 24.4696C73.5102 25.0936 71.8902 25.4056 69.6342 25.4056C67.3782 25.4056 65.7582 25.0936 64.7742 24.4696C63.7902 23.8216 63.1542 22.7656 62.8662 21.3016C62.6022 19.8136 62.4702 17.4496 62.4702 14.2096V0.349644H66.5742V15.7576C66.5742 17.6776 66.6222 19.0216 66.7182 19.7896C66.8382 20.5336 67.1022 21.0376 67.5102 21.3016C67.9182 21.5656 68.6262 21.6976 69.6342 21.6976C70.6662 21.6976 71.3862 21.5656 71.7942 21.3016C72.2022 21.0376 72.4542 20.5336 72.5502 19.7896C72.6702 19.0216 72.7302 17.6776 72.7302 15.7576V0.349644H76.8342ZM86.7626 25.4056C85.7786 25.4056 84.6986 25.3576 83.5226 25.2616C82.3466 25.1656 81.3266 25.0336 80.4626 24.8656V21.3736C82.5026 21.5896 84.2186 21.6976 85.6106 21.6976C87.2906 21.6976 88.3586 21.4336 88.8146 20.9056C89.0546 20.6656 89.2106 20.3416 89.2826 19.9336C89.3546 19.5016 89.3906 18.9256 89.3906 18.2056C89.3906 17.1976 89.3306 16.4776 89.2106 16.0456C89.0906 15.6136 88.8506 15.3016 88.4906 15.1096C88.1546 14.8936 87.5546 14.7136 86.6906 14.5696L83.1266 13.9576C81.9266 13.7656 81.0986 13.1296 80.6426 12.0496C80.2106 10.9696 79.9946 9.40964 79.9946 7.36964C79.9946 5.44964 80.2706 3.96164 80.8226 2.90564C81.3746 1.82564 82.1546 1.08164 83.1626 0.673645C84.1706 0.265644 85.4546 0.0616438 87.0146 0.0616438C88.0226 0.0616438 89.0426 0.133644 90.0746 0.277643C91.1306 0.397643 91.9706 0.541643 92.5946 0.709644V4.12965C91.3466 3.88964 89.8826 3.76964 88.2026 3.76964C87.2426 3.76964 86.4986 3.81764 85.9706 3.91364C85.4426 4.00964 85.0466 4.17764 84.7826 4.41764C84.4946 4.65764 84.3026 4.98164 84.2066 5.38964C84.1346 5.79764 84.0986 6.40964 84.0986 7.22564C84.0986 8.08964 84.1466 8.71364 84.2426 9.09764C84.3386 9.45764 84.5066 9.72164 84.7466 9.88964C85.0106 10.0576 85.4426 10.1896 86.0426 10.2856L89.3906 10.8616C90.3266 11.0056 91.0826 11.2816 91.6586 11.6896C92.2586 12.0976 92.7146 12.7816 93.0266 13.7416C93.3386 14.7256 93.4946 16.0336 93.4946 17.6656C93.4946 19.8016 93.2426 21.4336 92.7386 22.5616C92.2346 23.6656 91.5026 24.4216 90.5426 24.8296C89.6066 25.2136 88.3466 25.4056 86.7626 25.4056Z" fill="#6563D5" fill-opacity="0.56"/>
<path d="M2.39158 25.1176V0.349644H14.1996V4.05764H6.49558V10.7536H13.1556V14.4616H6.49558V21.4096H14.1996V25.1176H2.39158ZM27.9102 25.1176L25.2462 16.0816H21.7182V25.1176H17.6142V0.349644H25.6062C27.3342 0.349644 28.6302 0.649644 29.4942 1.24964C30.3822 1.84964 30.9702 2.70164 31.2582 3.80564C31.5702 4.90965 31.7262 6.37364 31.7262 8.19764C31.7262 9.97364 31.5462 11.4496 31.1862 12.6256C30.8502 13.8016 30.1542 14.6656 29.0982 15.2176L32.2302 25.1176H27.9102ZM24.6342 12.3736C25.5462 12.3736 26.2062 12.2656 26.6142 12.0496C27.0222 11.8096 27.2862 11.4136 27.4062 10.8616C27.5502 10.2856 27.6222 9.39764 27.6222 8.19764C27.6222 6.99764 27.5502 6.12164 27.4062 5.56964C27.2862 5.01764 27.0222 4.63364 26.6142 4.41764C26.2062 4.17764 25.5462 4.05764 24.6342 4.05764H21.7182V12.3736H24.6342ZM35.2987 25.1176V0.349644H39.4387V25.1176H35.2987ZM54.5353 25.1176L47.8393 9.81764H47.6953V25.1176H43.7353V0.349644H47.8393L54.2473 14.8936H54.3913V0.349644H58.3513V25.1176H54.5353ZM76.8342 0.349644V14.2096C76.8342 17.4496 76.6902 19.8136 76.4022 21.3016C76.1142 22.7656 75.4782 23.8216 74.4942 24.4696C73.5102 25.0936 71.8902 25.4056 69.6342 25.4056C67.3782 25.4056 65.7582 25.0936 64.7742 24.4696C63.7902 23.8216 63.1542 22.7656 62.8662 21.3016C62.6022 19.8136 62.4702 17.4496 62.4702 14.2096V0.349644H66.5742V15.7576C66.5742 17.6776 66.6222 19.0216 66.7182 19.7896C66.8382 20.5336 67.1022 21.0376 67.5102 21.3016C67.9182 21.5656 68.6262 21.6976 69.6342 21.6976C70.6662 21.6976 71.3862 21.5656 71.7942 21.3016C72.2022 21.0376 72.4542 20.5336 72.5502 19.7896C72.6702 19.0216 72.7302 17.6776 72.7302 15.7576V0.349644H76.8342ZM86.7626 25.4056C85.7786 25.4056 84.6986 25.3576 83.5226 25.2616C82.3466 25.1656 81.3266 25.0336 80.4626 24.8656V21.3736C82.5026 21.5896 84.2186 21.6976 85.6106 21.6976C87.2906 21.6976 88.3586 21.4336 88.8146 20.9056C89.0546 20.6656 89.2106 20.3416 89.2826 19.9336C89.3546 19.5016 89.3906 18.9256 89.3906 18.2056C89.3906 17.1976 89.3306 16.4776 89.2106 16.0456C89.0906 15.6136 88.8506 15.3016 88.4906 15.1096C88.1546 14.8936 87.5546 14.7136 86.6906 14.5696L83.1266 13.9576C81.9266 13.7656 81.0986 13.1296 80.6426 12.0496C80.2106 10.9696 79.9946 9.40964 79.9946 7.36964C79.9946 5.44964 80.2706 3.96164 80.8226 2.90564C81.3746 1.82564 82.1546 1.08164 83.1626 0.673645C84.1706 0.265644 85.4546 0.0616438 87.0146 0.0616438C88.0226 0.0616438 89.0426 0.133644 90.0746 0.277643C91.1306 0.397643 91.9706 0.541643 92.5946 0.709644V4.12965C91.3466 3.88964 89.8826 3.76964 88.2026 3.76964C87.2426 3.76964 86.4986 3.81764 85.9706 3.91364C85.4426 4.00964 85.0466 4.17764 84.7826 4.41764C84.4946 4.65764 84.3026 4.98164 84.2066 5.38964C84.1346 5.79764 84.0986 6.40964 84.0986 7.22564C84.0986 8.08964 84.1466 8.71364 84.2426 9.09764C84.3386 9.45764 84.5066 9.72164 84.7466 9.88964C85.0106 10.0576 85.4426 10.1896 86.0426 10.2856L89.3906 10.8616C90.3266 11.0056 91.0826 11.2816 91.6586 11.6896C92.2586 12.0976 92.7146 12.7816 93.0266 13.7416C93.3386 14.7256 93.4946 16.0336 93.4946 17.6656C93.4946 19.8016 93.2426 21.4336 92.7386 22.5616C92.2346 23.6656 91.5026 24.4216 90.5426 24.8296C89.6066 25.2136 88.3466 25.4056 86.7626 25.4056Z" fill="url(#paint0_linear_103_11)" fill-opacity="0.71"/>
<defs>
<linearGradient id="paint0_linear_103_11" x1="95" y1="6.11764" x2="40.1612" y2="-35.6736" gradientUnits="userSpaceOnUse">
<stop stop-color="#00A3FF"/>
<stop offset="1" stop-color="#00135B"/>
</linearGradient>
</defs>
</svg>
